# xmcd
#
# Track frame offsets: 
#        150
#        16195
#        30740
#        55132
#        68535
#        81817
#        101572
#        122677
#        138772
#        158260
#
# Disc length: 2400 seconds
#
# Revision: 2
# Processed by: cddbd v1.5.2PL0 Copyright (c) Steve Scherf et al.
# Submitted via: ExactAudioCopy v1.3
#
DISCID=6b095e0a
DTITLE=Ronnie Earl - Ronnie Earl Plays Big Blues
DYEAR=1997
DGENRE=Blues
TTITLE0=I Want to Shout About It
TTITLE1=Bonehead Too
TTITLE2=Peace of Mind
TTITLE3=Off the Hool
TTITLE4=Ronnie Johnnie
TTITLE5=I Smell Trouble
TTITLE6=Blind Love
TTITLE7=I Wish You Could See Me Now
TTITLE8=Backstroke
TTITLE9=Ships Passing in the Night
EXTD=
EXTT0=
EXTT1=
EXTT2=
EXTT3=
EXTT4=
EXTT5=
EXTT6=
EXTT7=
EXTT8=
EXTT9=
PLAYORDER=
